<?xml version="1.0" standalone="no"?>
<!DOCTYPE svg PUBLIC "-//W3C//DTD SVG 20010904//EN"
 "http://www.w3.org/TR/2001/REC-SVG-20010904/DTD/svg10.dtd">
<svg version="1.0" xmlns="http://www.w3.org/2000/svg"
 width="926.000000pt" height="418.000000pt" viewBox="0 0 926.000000 418.000000"
 preserveAspectRatio="xMidYMid meet">

<g transform="translate(0.000000,418.000000) scale(0.100000,-0.100000)"
fill="#000000" stroke="none">
<path d="M1163 3020 l-23 -9 0 -463 c0 -500 3 -532 56 -671 54 -140 178 -291
313 -381 152 -101 276 -139 461 -139 144 0 237 21 359 78 407 193 587 668 411
1085 -77 182 -254 361 -429 435 -158 66 -172 67 -671 71 -278 3 -464 0 -477
-6z m939 -255 c208 -44 388 -220 443 -432 8 -32 15 -96 15 -143 0 -325 -261
-590 -582 -590 -105 0 -168 15 -268 62 -152 73 -267 215 -310 383 -18 70 -20
111 -20 388 0 275 2 313 17 329 15 17 38 18 327 18 231 0 328 -4 378 -15z"/>
<path d="M1480 2410 c0 -158 5 -291 11 -322 27 -130 122 -259 239 -325 198
-111 444 -73 598 92 92 98 132 198 132 329 0 145 -44 253 -144 351 -33 33 -84
72 -112 87 -97 52 -143 58 -446 58 l-278 0 0 -270z"/>
<path d="M3730 2625 l0 -55 65 0 65 0 0 55 0 55 -65 0 -65 0 0 -55z"/>
<path d="M3980 2375 c0 -332 2 -346 56 -397 46 -42 75 -48 242 -48 144 0 160
2 197 23 22 13 49 40 62 62 21 36 23 53 23 181 0 130 -2 144 -22 174 -50 73
-97 89 -265 90 l-113 0 0 -65 0 -65 123 0 c159 0 157 1 157 -138 0 -139 -3
-142 -149 -142 -138 0 -166 6 -180 36 -7 17 -11 122 -11 309 l0 285 -60 0 -60
0 0 -305z"/>
<path d="M3010 2297 c0 -311 1 -335 18 -350 16 -15 54 -17 320 -17 l302 0 0
60 0 60 -257 2 -258 3 -3 288 -2 287 -60 0 -60 0 0 -333z"/>
<path d="M5920 2297 c0 -311 1 -335 18 -350 16 -15 54 -17 320 -17 l302 0 0
60 0 60 -257 2 -258 3 -3 288 -2 287 -60 0 -60 0 0 -333z"/>
<path d="M3730 2195 l0 -265 65 0 65 0 0 265 0 265 -65 0 -65 0 0 -265z"/>
<path d="M4813 2451 c-56 -14 -97 -45 -120 -91 -22 -41 -23 -57 -23 -237 l0
-193 65 0 65 0 0 188 c0 133 4 192 12 200 8 8 61 12 170 12 l159 0 -3 63 -3
62 -145 2 c-80 0 -159 -2 -177 -6z"/>
<path d="M5315 2441 c-46 -22 -79 -54 -94 -94 -6 -16 -11 -88 -11 -160 0 -157
15 -195 89 -234 41 -21 56 -23 198 -23 116 0 163 4 190 15 87 36 103 75 103
246 0 134 -7 169 -43 207 -46 50 -72 56 -237 59 -134 2 -160 0 -195 -16z m339
-127 c13 -12 16 -38 16 -120 0 -147 0 -147 -175 -142 -93 2 -138 7 -147 16
-19 19 -18 223 1 245 20 24 281 25 305 1z"/>
<path d="M6766 2449 c-54 -13 -95 -45 -117 -93 -15 -33 -19 -66 -19 -163 0
-132 7 -163 48 -207 46 -49 77 -56 245 -56 139 0 157 2 197 23 78 39 99 90
100 234 0 165 -37 237 -133 262 -53 13 -264 13 -321 0z m314 -138 c5 -11 10
-67 10 -125 0 -140 0 -139 -180 -135 -103 3 -133 7 -140 19 -14 23 -13 233 2
248 8 8 57 12 155 12 130 0 143 -2 153 -19z"/>
<path d="M7451 2450 c-110 -26 -153 -128 -137 -323 14 -163 62 -197 276 -197
l130 0 0 59 0 59 -126 4 c-157 4 -154 1 -154 143 0 137 -3 135 171 135 92 0
139 -4 147 -12 9 -9 12 -77 12 -245 l0 -233 -26 -10 c-14 -6 -77 -10 -140 -10
l-114 0 0 -60 0 -60 137 0 c158 0 200 13 243 77 25 36 25 39 28 282 3 208 1
252 -13 288 -19 50 -62 86 -120 102 -45 12 -263 13 -314 1z"/>
</g>
</svg>
