<?xml version="1.0" standalone="no"?>
<!DOCTYPE svg PUBLIC "-//W3C//DTD SVG 20010904//EN"
 "http://www.w3.org/TR/2001/REC-SVG-20010904/DTD/svg10.dtd">
<svg version="1.0" xmlns="http://www.w3.org/2000/svg"
 width="811.000000pt" height="416.000000pt" viewBox="0 0 811.000000 416.000000"
 preserveAspectRatio="xMidYMid meet">
<metadata>
Created by potrace 1.16, written by Peter Selinger 2001-2019
</metadata>
<g transform="translate(0.000000,416.000000) scale(0.100000,-0.100000)"
fill="#000000" stroke="none">
<path d="M0 2080 l0 -2080 4055 0 4055 0 0 2080 0 2080 -4055 0 -4055 0 0
-2080z m715 675 l0 -400 -127 -3 -128 -3 0 399 c0 219 3 402 7 406 4 3 61 5
127 4 l121 -3 0 -400z m895 -130 l0 -535 75 0 75 0 0 -110 0 -110 -275 0 -275
0 0 110 0 110 75 0 75 0 0 535 0 535 125 0 125 0 0 -535z m753 520 c126 -33
218 -100 264 -193 21 -44 28 -73 31 -141 5 -116 -19 -182 -90 -246 -27 -25
-54 -45 -59 -45 -14 0 -11 -20 4 -20 28 -1 104 -69 132 -121 28 -50 30 -62 30
-149 -1 -83 -4 -102 -28 -152 -32 -65 -84 -116 -156 -153 -82 -41 -162 -55
-318 -55 l-143 0 0 119 0 120 143 3 c196 4 248 32 250 135 0 54 -24 90 -79
118 -35 18 -63 20 -301 23 l-263 3 0 385 0 384 263 0 c201 0 276 -4 320 -15z
m990 -12 c153 -58 237 -184 237 -358 0 -68 -22 -153 -51 -201 -10 -17 -19 -34
-19 -38 0 -3 26 -6 59 -6 l59 0 7 58 c32 272 175 459 415 544 81 29 255 36
354 14 267 -60 439 -271 471 -579 l6 -57 42 7 c83 15 328 9 397 -10 318 -87
528 -365 547 -723 21 -406 -184 -725 -537 -836 -66 -20 -95 -23 -235 -23 -140
0 -169 3 -235 23 -255 80 -423 255 -506 527 -25 80 -28 106 -28 241 l-1 151
-110 6 c-215 10 -382 105 -480 273 l-40 68 -3 -342 -2 -342 -155 0 -155 0 0
170 0 170 -26 0 c-22 0 -30 11 -70 98 -25 53 -79 170 -121 260 l-76 162 -63 0
-64 0 -2 -257 -3 -258 -122 -3 c-120 -3 -123 -2 -128 20 -3 13 -4 183 -3 378
l3 355 260 5 c224 4 265 7 292 23 93 51 95 188 3 242 -32 18 -57 20 -295 25
l-260 5 -3 95 c-2 52 0 105 3 118 l6 23 287 -3 c266 -3 291 -5 345 -25z m3827
-747 l0 -144 -252 -5 c-274 -5 -319 -12 -427 -67 -110 -55 -193 -168 -220
-298 -16 -76 -14 -238 4 -305 41 -159 138 -264 291 -318 68 -24 294 -42 300
-24 3 6 3 95 2 199 l-3 188 -155 1 -155 2 -3 153 -3 152 311 0 310 0 0 -500 0
-500 -213 0 c-322 0 -467 24 -633 106 -256 126 -374 348 -374 703 0 163 24
282 81 399 53 111 166 227 276 285 171 89 309 115 631 116 l232 1 0 -144z
m-6000 -396 l0 -120 -360 0 -360 0 0 120 0 120 360 0 360 0 0 -120z m3104
-792 c8 -30 8 -226 0 -256 l-6 -22 -442 2 -441 3 -3 148 -3 147 445 0 444 0 6
-22z"/>
<path d="M2030 2780 l0 -152 128 4 c140 4 187 19 226 72 27 35 27 110 1 149
-35 53 -86 70 -227 75 l-128 4 0 -152z"/>
<path d="M4145 2910 c-316 -103 -341 -639 -37 -778 67 -30 176 -40 251 -22 48
11 54 16 96 81 25 39 74 100 109 136 62 64 65 69 71 129 21 192 -74 381 -224
446 -68 30 -190 34 -266 8z m184 -295 c38 -19 65 -77 57 -124 -8 -53 -63 -101
-117 -101 -123 0 -175 138 -81 217 32 27 98 31 141 8z"/>
<path d="M4995 2236 c-215 -52 -355 -252 -356 -506 -1 -113 12 -170 57 -266
64 -137 168 -219 316 -250 211 -45 411 54 505 248 42 85 56 153 55 264 0 119
-14 179 -64 277 -43 82 -118 161 -189 198 -92 46 -220 60 -324 35z m171 -375
c171 -78 74 -336 -106 -282 -47 14 -97 69 -106 116 -9 49 19 119 59 149 53 40
93 44 153 17z"/>
</g>
</svg>
